<svg width="445" height="650" viewBox="0 0 445 650" fill="none" xmlns="http://www.w3.org/2000/svg">
<path d="M145.924 1.30105C132.924 2.90105 130.324 3.40105 121.924 6.50105C109.524 11.101 91.4242 20.901 91.4242 22.901C91.4242 23.401 90.8242 23.801 90.0242 23.801C88.7242 23.801 86.1242 26.5011 77.5242 36.7011C76.4242 38.0011 75.2242 40.0011 74.8242 41.2011C74.4242 42.3011 73.0242 45.0011 71.6242 47.0011C68.8242 51.3011 65.1242 67.0011 65.3242 73.8011C65.4242 76.3011 65.9242 80.3011 66.4242 82.8011C66.9242 85.3011 67.8242 90.7011 68.4242 94.8011C69.4242 101.601 70.1242 104.701 73.5242 117.301C75.1242 123.001 75.7242 124.601 78.8242 131.001C81.5242 136.501 83.6242 138.401 85.6242 137.201C86.9242 136.401 85.6242 125.601 83.7242 120.901C80.7242 113.701 77.5242 100.601 75.8242 87.8011C75.5242 85.3011 75.2242 78.6011 75.2242 72.8011C75.1242 63.1011 75.4242 61.8011 78.3242 55.8011C83.4242 45.1011 85.2242 42.3011 90.7242 36.7011C97.7242 29.4011 102.724 25.701 110.424 21.901C123.524 15.301 130.524 13.001 145.324 10.301C155.624 8.40105 176.224 8.10105 179.124 9.80105C180.124 10.301 183.024 11.701 185.724 12.801C188.324 13.901 191.124 15.301 192.024 16.001C198.224 21.001 204.424 29.401 204.424 32.701C204.424 35.801 207.224 38.0011 209.524 36.8011C214.324 34.2011 210.224 22.301 201.624 13.501C189.524 1.20105 174.024 -2.19895 145.924 1.30105Z" fill="#033732"/>
<path d="M237.125 29.5019C232.425 29.8019 231.125 30.3019 229.825 32.3019C228.925 33.6019 228.425 35.5019 228.625 36.5019C228.925 38.1019 230.125 38.3019 238.425 38.3019C246.825 38.3019 248.325 38.6019 251.025 40.7019C252.825 42.0019 255.425 45.5019 256.925 48.6019C259.425 53.8019 259.625 54.9018 259.125 62.3018C258.725 66.7018 257.625 73.3018 256.525 77.0018C254.225 84.8018 245.925 106.002 243.425 110.302C242.525 111.902 240.225 117.102 238.325 121.702L234.925 130.202L234.325 111.202C233.525 87.8018 232.525 73.2018 231.525 69.2018C230.825 66.8018 231.125 65.7018 233.025 63.4018C235.825 60.3018 236.125 57.0019 233.825 56.1019C232.625 55.7019 230.325 57.5018 225.925 62.1018C222.425 65.7018 217.725 69.9018 215.525 71.4018C213.225 72.9018 211.425 74.4018 211.425 74.9018C211.425 75.3018 210.425 76.0018 209.225 76.4018C207.925 76.8018 205.325 78.4018 203.425 79.9018C201.525 81.5018 199.325 82.8018 198.625 82.8018C197.825 82.8018 196.025 83.6018 194.625 84.6018C193.125 85.7018 189.425 87.3018 186.425 88.3018C183.425 89.2018 180.125 90.4018 179.225 90.9018C174.325 93.3018 160.925 95.7018 149.625 96.1018C140.125 96.4018 134.325 96.0018 123.625 94.2018C107.325 91.5018 98.8245 88.8018 92.8245 84.2018C87.5245 80.2018 85.7245 80.0018 84.2245 83.3018C82.8245 86.4018 84.8245 89.7018 90.4245 93.6018L94.3245 96.3018L93.9245 115.302C93.4245 135.902 93.3245 168.102 93.7245 171.302C93.9245 173.102 93.2245 173.302 86.8245 173.602C80.4245 173.902 79.5245 173.602 77.0245 171.302C75.4245 169.802 74.5245 168.102 74.7245 167.002C75.0245 166.102 75.5245 163.602 75.9245 161.602C76.5245 157.502 80.0245 154.402 86.3245 152.202C89.5245 151.102 89.9245 150.602 89.9245 147.602C89.9245 144.702 89.5245 144.302 87.1245 144.002C83.3245 143.502 76.6245 146.802 73.0245 150.902C69.3245 155.002 66.1245 165.102 66.9245 169.802C67.8245 174.402 72.8245 180.502 76.4245 181.302C78.9245 181.902 79.4245 182.502 79.9245 186.102C80.9245 193.602 80.0245 202.602 78.2245 204.002C74.1245 207.102 73.8245 214.702 77.7245 217.902C79.4245 219.302 79.7245 220.502 79.5245 228.102C79.3245 235.802 79.0245 237.102 76.8245 239.502C73.2245 243.302 73.5245 248.702 77.4245 251.602C81.1245 254.402 81.5245 254.302 84.3245 251.402C87.0245 248.502 88.3245 240.602 86.5245 238.402C85.7245 237.402 85.3245 233.802 85.5245 228.102C85.7245 219.202 86.6245 216.002 89.0245 214.502C91.2245 213.202 90.8245 205.502 88.4245 202.502C86.8245 200.402 86.4245 198.502 86.4245 191.602V183.102L90.4245 181.902C92.6245 181.202 94.9245 181.002 95.4245 181.302C96.0245 181.602 96.4245 183.802 96.4245 186.102C96.5245 198.902 109.925 214.802 124.625 219.702C128.925 221.102 128.725 219.302 126.425 235.802C125.925 239.402 125.225 247.302 124.825 253.302C124.325 262.402 124.525 264.602 125.725 265.602C129.325 268.602 132.425 264.002 132.425 255.802C132.425 247.402 133.425 246.202 141.625 243.802C145.625 242.602 150.025 241.102 151.425 240.402C152.825 239.602 156.425 238.502 159.425 237.802C162.425 237.102 167.225 235.702 169.925 234.802C172.725 233.802 177.425 232.202 180.425 231.202C183.425 230.302 186.525 229.102 187.225 228.502C187.925 228.002 188.625 227.702 188.825 227.902C189.225 228.502 191.425 252.602 191.425 257.102C191.425 264.302 196.725 268.502 199.725 263.502C200.925 261.602 200.925 259.602 199.725 249.802C199.025 243.502 198.125 236.702 197.925 234.802C197.725 232.902 197.225 228.702 196.825 225.502C196.325 221.202 196.525 219.802 197.425 219.802C199.925 219.802 210.025 212.502 215.125 206.902C219.425 202.402 226.825 189.902 228.125 185.302C228.225 184.702 228.725 182.602 229.325 180.502C230.425 175.902 230.225 176.102 233.525 175.302L236.125 174.702L236.025 185.702C236.025 196.302 235.925 196.702 233.725 197.302C231.625 197.802 229.825 201.502 230.125 204.302C230.825 210.502 231.725 212.602 233.325 213.102C234.925 213.502 235.225 214.602 235.325 220.202C235.325 223.802 234.925 226.802 234.425 226.802C230.725 226.802 228.925 236.302 232.025 240.602C234.025 243.502 238.725 243.502 241.425 240.502C243.225 238.602 243.425 237.502 242.925 233.302C242.625 230.502 242.225 224.902 242.125 220.802C241.825 214.002 242.125 213.002 244.425 210.502C247.925 206.602 248.025 199.502 244.525 196.902C242.325 195.202 242.125 194.402 242.025 184.802L241.925 174.402L244.925 173.602C252.925 171.602 260.025 158.102 257.325 150.002C254.825 142.402 249.425 136.802 244.525 136.802C243.525 136.802 242.525 136.502 242.125 136.202C241.425 135.502 243.225 131.002 245.025 128.802C245.725 128.002 246.925 124.802 247.825 121.702C248.725 118.602 250.125 115.302 250.925 114.202C251.725 113.202 252.425 111.702 252.425 111.102C252.425 110.402 253.525 107.502 254.925 104.602C261.925 89.6018 266.425 71.7019 266.425 59.3019C266.425 47.1019 264.525 42.1019 256.725 34.0019C254.925 32.0019 245.125 28.4019 243.425 29.0019C243.125 29.1019 240.325 29.3019 237.125 29.5019ZM225.525 86.0018C225.625 92.8018 225.825 111.102 226.025 126.802C226.225 142.502 225.925 160.702 225.425 167.202C224.625 177.902 224.125 179.902 220.825 186.702C216.325 195.802 203.525 209.202 198.125 210.302C196.325 210.702 194.425 211.402 193.925 211.902C193.325 212.302 187.725 214.102 181.425 215.702C171.725 218.202 168.625 218.602 161.425 218.202C156.725 218.002 150.725 217.102 148.125 216.202C145.425 215.302 142.425 214.802 141.325 215.102C140.325 215.402 137.025 214.702 134.125 213.602C131.325 212.502 127.025 210.902 124.725 210.102C122.325 209.302 118.325 206.402 115.725 203.802C104.325 192.602 102.325 181.902 102.125 132.602L101.925 99.8018L105.425 100.402C107.325 100.702 111.225 101.602 113.925 102.402C129.625 106.602 169.125 106.302 174.925 101.802C175.525 101.402 177.525 100.702 179.425 100.302C181.325 99.9018 184.525 98.9018 186.425 98.0018C188.325 97.2018 190.125 96.4018 190.425 96.4018C194.825 95.4018 213.025 83.7018 220.325 77.1018C222.325 75.3018 224.225 73.8018 224.725 73.8018C225.125 73.8018 225.525 79.3018 225.525 86.0018ZM235.125 135.002C234.825 135.802 234.525 135.502 234.525 134.402C234.425 133.302 234.725 132.702 235.025 133.102C235.325 133.402 235.425 134.302 235.125 135.002ZM246.425 147.302C249.425 150.002 250.825 156.302 249.325 160.002C247.925 163.302 242.825 166.002 235.725 167.202C230.725 167.902 230.925 168.902 232.625 154.702L233.725 144.602L239.025 145.002C242.325 145.302 245.225 146.202 246.425 147.302Z" fill="#033732"/>
<path d="M171.926 122.901C171.426 123.501 171.126 129.501 171.026 136.201C170.826 150.101 169.126 155.901 164.426 158.301C161.826 159.701 161.526 159.601 160.026 157.301C159.126 155.901 158.126 152.801 157.726 150.301C157.426 147.601 156.626 145.801 155.826 145.801C153.526 145.801 151.426 150.101 151.426 154.901C151.426 158.801 151.926 160.101 155.226 163.601C162.526 171.501 169.526 168.701 174.926 155.701C177.326 150.001 177.626 148.101 177.526 138.801C177.526 133.001 177.026 126.901 176.626 125.301C175.726 122.201 173.126 120.801 171.926 122.901Z" fill="#033732"/>
<path d="M349.225 189.602C344.925 190.102 339.925 196.802 337.825 204.602C336.925 208.302 335.725 212.102 335.225 213.002C334.425 214.702 332.025 241.602 332.025 249.502C332.025 251.902 331.725 253.802 331.425 253.802C331.025 253.802 330.025 252.302 329.125 250.502C322.525 238.002 314.825 233.602 309.525 239.202L307.225 241.702L308.925 254.002C309.825 260.802 311.025 269.202 311.425 272.802C312.325 279.802 313.325 283.702 314.425 285.302C314.825 285.802 315.525 287.902 315.925 289.802C316.325 291.702 317.025 293.902 317.425 294.802C319.025 297.802 323.225 307.402 325.225 312.302C327.725 318.502 329.025 335.402 327.625 342.902C327.025 345.902 325.825 354.402 324.925 361.802C323.225 375.902 322.625 379.702 320.025 393.902C319.125 398.702 318.425 404.302 318.425 406.402C318.425 408.602 317.725 413.502 316.925 417.302C316.125 421.202 315.425 427.202 315.425 430.802C315.425 434.402 315.025 438.902 314.425 440.802C313.925 442.702 313.225 447.402 312.925 451.302C312.625 455.102 311.825 461.902 311.225 466.302C310.625 470.702 310.225 476.002 310.325 478.202C310.425 480.302 310.025 482.602 309.525 483.202C308.325 484.602 306.525 509.301 307.125 514.901C307.425 517.701 307.325 517.902 306.525 516.102C305.925 514.902 305.325 512.202 305.125 510.102C304.425 504.702 303.425 500.002 301.825 495.102C301.125 492.802 300.425 489.202 300.325 487.102C300.225 485.002 299.525 481.002 298.725 478.302C295.425 467.102 294.625 464.002 293.525 458.302C291.225 446.602 286.125 425.202 284.325 419.502C283.225 416.302 282.125 411.102 281.725 408.002C281.425 404.902 280.325 400.202 279.425 397.702C278.425 395.202 277.125 390.602 276.525 387.402C275.925 384.302 274.825 380.302 274.025 378.502C273.325 376.702 271.825 372.802 270.925 369.802C270.025 366.802 268.425 362.902 267.425 361.302C266.525 359.602 264.825 355.602 263.925 352.302C262.925 349.002 261.225 345.102 260.225 343.602C259.225 342.202 258.425 340.302 258.425 339.502C258.425 338.702 257.525 336.902 256.425 335.502C255.325 334.102 254.425 332.502 254.425 331.902C254.425 330.902 248.525 318.202 245.925 313.802C245.125 312.402 243.525 309.502 242.425 307.302C240.125 302.502 233.625 293.901 231.225 292.401C227.925 290.401 224.525 296.501 227.425 299.401C228.425 300.401 239.325 320.802 241.525 325.802C242.125 327.202 243.025 329.002 243.525 329.802C244.025 330.602 245.425 333.302 246.525 335.802C247.725 338.302 249.525 341.902 250.525 343.802C251.525 345.702 253.025 349.502 253.925 352.102C254.825 354.802 256.825 359.702 258.325 363.102C259.825 366.502 262.125 372.702 263.425 376.802C264.725 380.902 266.725 387.202 267.925 390.802C269.125 394.402 271.625 403.602 273.425 411.302C275.225 419.002 277.525 428.402 278.625 432.302C279.725 436.102 281.125 442.902 281.925 447.302C282.625 451.702 283.925 458.202 284.925 461.802C285.825 465.402 286.925 470.302 287.425 472.802C287.925 475.302 289.925 484.302 291.925 492.802C293.825 501.302 295.725 510.702 296.125 513.602C296.425 516.502 297.025 519.101 297.525 519.401C297.925 519.601 298.625 522.601 299.025 525.901C300.025 535.001 305.325 540.201 308.625 535.401C309.725 533.801 309.625 529.001 308.425 526.701C307.525 525.001 307.725 524.802 310.225 524.802C311.825 524.802 313.625 524.202 314.225 523.502C314.725 522.902 315.525 516.902 315.925 510.302C316.325 503.702 317.525 490.602 318.625 481.302C319.625 471.902 321.025 460.702 321.525 456.302C325.425 422.602 328.325 399.602 330.125 388.802C330.925 383.602 331.725 377.702 331.925 375.802C332.025 373.902 332.425 370.502 332.825 368.302C334.525 357.602 336.425 338.302 336.425 330.102C336.425 319.302 334.525 310.802 329.925 301.802C328.125 298.202 325.925 293.702 325.025 291.802C322.425 286.102 318.525 266.602 317.225 252.702C316.925 250.002 317.225 249.202 318.125 249.502C318.825 249.802 319.425 250.702 319.425 251.602C319.425 252.402 320.225 254.002 321.125 255.002C322.025 256.102 324.525 260.102 326.525 264.102C330.625 272.102 333.225 273.602 335.925 269.502C337.325 267.302 337.325 266.802 335.525 262.702C333.525 258.402 333.525 258.302 335.425 257.602C336.525 257.202 337.625 255.902 337.925 254.602C339.025 249.602 340.425 238.802 341.025 230.702C341.325 226.102 342.025 220.502 342.625 218.302C343.225 216.102 343.825 213.802 343.925 213.302C344.925 205.702 347.525 197.702 348.925 198.102C350.325 198.602 355.025 213.302 355.725 219.802C356.125 222.802 356.625 226.702 357.025 228.502C357.325 230.302 357.725 237.202 357.825 244.002C357.925 255.502 358.025 256.302 359.925 256.302C362.625 256.302 366.225 247.902 369.025 235.202C372.325 220.302 381.125 198.902 382.825 201.702C385.325 205.702 383.125 234.102 378.525 256.502C377.825 260.202 378.025 261.002 379.925 262.802C382.025 264.802 382.325 264.802 383.825 263.302C384.725 262.402 386.225 260.202 387.125 258.502C388.025 256.702 389.525 254.201 390.525 252.901C391.625 251.601 392.425 249.802 392.425 248.802C392.425 247.802 393.325 245.902 394.425 244.502C395.525 243.102 396.425 241.501 396.425 240.901C396.425 239.501 405.725 223.901 408.325 220.901C409.525 219.601 410.425 218.202 410.425 217.802C410.425 216.702 416.425 212.702 417.325 213.202C418.125 213.702 417.725 216.802 415.425 225.802C414.825 228.202 412.325 234.502 409.825 239.602C407.425 244.702 405.425 249.702 405.425 250.602C405.425 251.502 404.225 254.802 402.825 257.802C401.425 260.802 399.625 264.602 398.925 266.302C398.225 267.902 396.525 271.802 395.125 274.802C393.825 277.802 391.225 284.102 389.425 288.802C385.525 299.002 384.725 300.902 383.425 302.802C382.925 303.602 381.125 308.102 379.325 312.802C377.625 317.502 375.625 322.602 374.925 324.302C373.625 327.202 372.825 332.202 370.425 350.802C369.125 360.302 367.725 368.302 366.325 374.302C365.725 376.502 365.125 379.402 365.025 380.802C364.525 384.502 363.425 392.502 362.425 399.802C361.825 403.402 361.225 407.902 361.025 409.802C360.725 411.702 360.325 414.402 360.125 415.802C359.425 419.002 358.425 427.902 357.925 434.602C357.725 437.502 357.125 442.202 356.525 445.102C356.025 447.902 354.825 456.802 353.925 464.802C351.125 490.202 350.625 494.002 348.525 509.802C345.625 530.702 343.525 545.402 342.425 550.802C342.025 553.302 341.125 558.002 340.425 561.302C339.825 564.602 338.925 570.202 338.325 573.802C335.625 592.302 330.525 603.802 322.625 609.802C319.725 611.902 315.725 614.001 313.825 614.401C308.825 615.301 301.525 613.002 297.125 609.102C292.425 605.002 289.525 604.902 288.225 608.802C287.725 610.302 281.425 597.802 281.425 595.302C281.425 594.602 280.725 593.502 279.925 592.802C279.125 592.102 278.425 590.702 278.425 589.802C278.425 587.402 274.925 579.201 273.525 578.401C273.025 578.001 272.725 577.202 273.025 576.502C273.225 575.802 271.625 571.102 269.425 566.102C267.225 561.102 265.425 556.502 265.425 555.802C265.425 555.102 264.325 552.001 263.025 548.901C259.725 541.301 256.625 529.102 255.125 518.302C254.025 510.502 253.525 509.302 251.825 509.002C247.725 508.402 246.825 519.402 249.625 536.102C250.225 539.802 251.125 543.101 251.625 543.401C252.025 543.701 252.425 544.801 252.425 545.901C252.425 546.901 252.825 548.602 253.425 549.602C254.725 552.002 259.425 566.402 259.425 568.102C259.425 568.902 260.525 571.602 261.825 574.102C263.225 576.602 264.025 578.902 263.725 579.102C263.425 579.402 263.925 580.702 264.825 582.002C265.725 583.202 266.425 585.202 266.425 586.302C266.525 587.402 267.325 590.102 268.425 592.302C269.525 594.502 270.325 596.702 270.425 597.302C270.425 597.802 272.025 601.802 274.025 606.302C278.225 615.602 278.525 616.302 281.525 624.302C287.125 639.702 289.425 646.502 289.425 648.302C289.425 649.402 290.025 651.202 290.825 652.302C291.525 653.402 292.725 657.002 293.325 660.302C294.025 663.602 295.425 668.902 296.525 672.102C297.625 675.302 298.625 679.702 298.725 682.002L298.925 686.201L294.025 687.002C291.325 687.302 288.625 688.201 288.125 688.701C287.525 689.301 285.725 689.802 284.225 689.802C282.625 689.802 279.625 690.702 277.425 691.802C275.225 692.902 272.825 693.802 271.925 693.802C271.125 693.802 268.725 694.702 266.725 695.802C264.625 696.902 262.425 697.802 261.825 697.802C261.125 697.802 258.425 698.902 255.725 700.102C234.325 710.502 226.725 714.402 221.325 718.002C216.725 720.902 214.925 721.701 214.525 720.701C214.025 719.201 206.825 711.802 205.925 711.802C205.625 711.802 203.125 710.702 200.325 709.302C197.425 708.002 192.825 706.401 189.925 705.901C184.325 704.801 171.325 705.402 167.925 706.802C166.825 707.202 163.325 708.602 160.125 709.802C157.025 711.002 154.125 712.401 153.825 712.901C153.525 713.401 151.525 714.702 149.425 715.802C147.225 716.902 143.925 719.901 141.925 722.401C139.825 725.201 138.425 726.401 138.425 725.401C138.425 724.501 137.625 723.502 136.725 723.102C135.725 722.802 133.125 721.702 130.925 720.802C123.425 717.602 106.925 712.402 94.4249 709.302C72.9249 703.902 71.1249 703.702 53.0249 703.502L35.2249 703.302L35.9249 695.802C36.3249 691.702 36.7249 686.902 36.9249 685.302C37.1249 683.602 37.5249 679.801 37.8249 676.701C38.7249 667.301 40.4249 656.602 41.8249 651.302C42.6249 648.502 43.7249 644.002 44.4249 641.302C45.0249 638.502 45.7249 635.602 46.0249 634.802C46.2249 634.002 47.5249 629.002 48.9249 623.802C50.2249 618.602 51.8249 613.502 52.4249 612.602C52.9249 611.602 53.4249 609.901 53.4249 608.901C53.4249 607.801 53.8249 606.701 54.3249 606.401C54.8249 606.101 55.9249 602.802 56.9249 599.102C59.4249 588.802 60.7249 584.502 62.1249 581.802C62.8249 580.402 63.4249 578.402 63.4249 577.302C63.5249 574.902 65.6249 566.701 66.6249 565.201C67.0249 564.601 67.5249 563.101 67.8249 561.701C68.0249 560.401 68.9249 556.102 69.9249 552.302C71.6249 545.002 72.9249 537.302 74.3249 527.302C74.8249 524.002 75.5249 519.602 75.9249 517.602C76.5249 514.602 76.3249 513.701 75.0249 513.201C72.5249 512.201 69.8249 515.302 68.4249 520.602C67.8249 523.202 66.8249 526.202 66.4249 527.302C65.9249 528.402 64.6249 534.002 63.4249 539.802C62.3249 545.602 60.7249 552.302 59.9249 554.802C59.1249 557.302 56.9249 564.702 54.9249 571.302C52.9249 577.902 50.4249 585.502 49.4249 588.302C48.3249 591.002 47.0249 595.102 46.5249 597.302C45.1249 602.802 39.5249 619.702 37.8249 623.302C37.1249 624.902 36.0249 629.002 35.5249 632.302C34.9249 635.602 33.4249 642.302 32.0249 647.302C30.7249 652.202 29.4249 659.002 29.0249 662.302C28.7249 665.602 27.7249 673.902 26.8249 680.802C25.9249 687.702 25.0249 696.402 24.8249 700.302C24.2249 713.202 24.2249 759.702 24.9249 760.802C25.3249 761.402 25.7249 768.802 25.9249 777.102C26.3249 791.802 27.1249 807.502 27.9249 814.802C28.2249 816.702 28.8249 823.402 29.4249 829.702C30.0249 836.002 30.8249 841.602 31.1249 842.102C31.4249 842.702 31.8249 845.402 31.9249 848.202C32.3249 855.302 35.4249 882.402 36.5249 887.802C37.0249 890.302 38.1249 896.802 38.9249 902.302C39.7249 907.802 40.9249 914.102 41.4249 916.302C42.0249 918.502 42.6249 921.002 42.8249 921.802C43.0249 922.602 43.4249 924.402 43.7249 925.802C44.0249 927.202 44.8249 932.602 45.4249 937.802C46.0249 943.002 47.8249 951.602 49.4249 956.802C50.9249 962.002 52.5249 968.002 52.9249 970.202C53.2249 972.302 53.9249 974.802 54.4249 975.702C56.1249 978.802 58.4249 985.902 58.4249 987.702C58.4249 988.702 59.1249 990.902 59.9249 992.402C60.7249 994.002 61.4249 996.502 61.4249 998.002C61.4249 999.502 61.8249 1002.7 62.4249 1005C63.6249 1010.7 65.7249 1020.8 66.0249 1023.3C66.2249 1024.4 67.9249 1031.1 69.9249 1038.3C72.0249 1045.4 74.2249 1055.3 75.0249 1060.3C75.8249 1065.2 77.3249 1071.5 78.3249 1074.3C79.4249 1077 80.7249 1081.5 81.4249 1084.2C82.0249 1086.9 83.1249 1090.3 83.8249 1091.7C84.5249 1093.1 85.7249 1097.2 86.3249 1100.8C87.0249 1104.4 88.4249 1109.3 89.4249 1111.8C90.3249 1114.3 91.2249 1118 91.2249 1120.1C91.3249 1122.2 92.4249 1126 93.7249 1128.6C95.0249 1131.2 96.6249 1135.5 97.3249 1138.3C98.7249 1143.7 102.925 1154 107.525 1163C109.125 1166.1 110.425 1170.2 110.425 1171.9C110.425 1175.8 112.325 1186.5 113.525 1189.3C115.525 1193.9 121.625 1216 123.125 1223.8C123.325 1225.2 123.925 1227.2 124.425 1228.3C125.225 1230.4 126.825 1238.1 128.025 1245.8C128.325 1248.3 129.025 1250.8 129.525 1251.4C130.125 1252.1 130.725 1254.8 131.025 1257.4L131.625 1262.3L125.325 1268.5C121.825 1272 118.325 1274.8 117.325 1274.8C116.425 1274.8 114.625 1275.6 113.325 1276.6C110.625 1278.6 106.325 1280.6 101.925 1281.9C95.2249 1283.9 78.3249 1285.8 67.0249 1285.8C54.3249 1285.8 42.9249 1287.7 39.2249 1290.2C38.0249 1291.1 36.2249 1291.8 35.3249 1291.8C34.3249 1291.8 32.2249 1293.9 30.5249 1296.5C27.0249 1301.7 26.6249 1306.3 28.5249 1316.1C29.5249 1320.7 30.1249 1321.8 32.3249 1322.7C39.9249 1325.6 59.0249 1326.4 152.425 1327.5C251.325 1328.8 315.925 1327.8 320.225 1325C321.425 1324.2 322.425 1323.9 322.425 1324.4C322.425 1326 327.525 1320.3 329.925 1316C333.025 1310.5 333.125 1304.4 330.325 1297.8C326.425 1288.8 314.525 1283.6 300.425 1284.9C292.125 1285.6 262.025 1285.7 261.125 1285C260.425 1284.5 256.725 1283.1 252.825 1281.9C246.625 1279.9 244.825 1278.8 238.125 1272.2C233.825 1268 230.425 1264 230.425 1263.3C230.425 1262.5 231.725 1259.5 233.325 1256.6C234.825 1253.7 236.425 1250.2 236.925 1248.8C237.625 1246.5 240.025 1240.3 244.525 1229.8C245.625 1227.3 246.825 1223.3 247.325 1220.8C247.825 1218.3 248.925 1214.3 249.725 1211.8C252.325 1204.2 256.425 1189 256.425 1186.9C256.425 1185.8 256.825 1184.7 257.325 1184.4C257.825 1184.1 258.525 1182.2 258.925 1180.1C259.225 1178.1 260.425 1174.6 261.425 1172.4C262.425 1170.1 263.725 1166.7 264.325 1164.8C264.825 1162.9 266.525 1157.2 267.925 1152.3C269.425 1147.3 271.025 1142.5 271.525 1141.6C272.025 1140.6 272.425 1139.3 272.425 1138.6C272.425 1137.9 273.325 1135.5 274.325 1133.3C275.425 1131.1 277.225 1126.1 278.425 1122.3C279.525 1118.4 281.125 1113.7 281.925 1111.8C284.925 1104.2 290.425 1085.8 290.425 1083.4C290.425 1082 290.925 1080.6 291.425 1080.3C292.025 1080 292.425 1078.2 292.425 1076.4C292.425 1074.7 292.825 1072.8 293.325 1072.2C293.825 1071.7 294.525 1068.8 294.825 1065.8C295.425 1060.3 296.325 1055.8 298.425 1046.3C299.025 1043.5 300.025 1038.8 300.525 1035.8C301.125 1032.8 302.025 1028.9 302.525 1027.3C303.125 1025.6 303.825 1021.9 304.025 1018.9C304.325 1016 305.425 1009.2 306.525 1003.9C307.625 998.602 308.525 993.302 308.525 992.102C308.425 990.902 309.125 988.702 309.925 987.102C310.725 985.602 311.425 982.802 311.425 981.102C311.425 979.302 312.125 976.102 312.925 974.102C313.725 972.002 314.825 967.802 315.425 964.802C317.725 953.102 318.125 951.302 318.725 949.802C319.025 949.002 319.525 945.602 319.825 942.302C320.025 939.002 320.725 935.002 321.325 933.502C321.925 931.902 322.625 927.202 322.925 923.002C323.525 915.002 325.025 906.502 326.525 903.702C328.425 899.902 330.425 874.002 330.425 850.702C330.525 828.802 329.225 796.701 327.925 791.201C326.625 785.501 324.925 771.702 324.025 760.802C323.325 751.202 321.325 735.402 320.725 734.502C320.425 734.002 319.825 730.702 319.325 727.002C318.825 723.302 318.225 718.702 317.825 716.802C317.525 714.902 317.125 712.202 316.925 710.802C314.525 692.002 313.925 688.101 312.725 686.701C312.025 685.901 311.425 684.501 311.425 683.701C311.425 683.001 310.525 679.402 309.525 675.802C308.425 672.202 306.325 664.902 304.825 659.502C303.325 654.102 301.725 649.501 301.225 649.201C300.825 648.901 300.425 647.401 300.425 645.901C300.425 644.401 300.025 642.802 299.625 642.302C299.125 641.702 298.225 639.302 297.525 636.802C296.825 634.302 295.325 630.402 294.325 628.102C293.325 625.802 292.425 623.402 292.425 622.802C292.425 622.202 291.825 620.502 291.025 619.002C290.325 617.502 289.425 615.102 289.025 613.502C288.425 610.802 288.525 610.902 292.525 614.802C294.825 617.002 297.125 618.802 297.625 618.802C298.225 618.802 300.025 619.802 301.725 621.002C306.225 624.202 317.025 624.001 323.425 620.701C328.425 618.101 336.425 610.401 336.425 608.201C336.425 607.401 337.125 606.501 337.925 606.201C338.725 605.801 339.425 605.201 339.425 604.701C339.425 604.201 340.525 601.501 341.925 598.701C343.225 595.801 345.125 589.201 345.925 583.901C346.825 578.601 347.725 572.902 347.925 571.302C348.225 569.602 348.725 567.202 349.025 565.802C351.125 556.602 352.525 549.102 355.425 530.802C355.925 527.802 356.825 523.101 357.325 520.401C357.825 517.701 358.025 514.902 357.725 514.302C357.525 513.602 358.025 508.202 358.925 502.202C360.925 489.202 360.925 489.002 362.425 471.802C363.125 464.402 363.925 457.602 364.225 456.802C364.525 456.002 364.925 454.202 365.025 452.802C365.925 439.102 366.525 434.502 367.325 433.102C367.825 432.102 368.525 427.202 368.925 422.302C369.325 417.302 370.025 410.602 370.525 407.302C371.725 398.902 374.525 378.202 375.025 372.802C375.325 370.302 376.425 361.202 377.425 352.502C378.525 343.902 379.425 334.902 379.425 332.702C379.425 329.502 380.125 327.802 382.425 325.102C384.125 323.302 385.425 321.302 385.425 320.702C385.425 320.202 386.825 316.702 388.525 313.102C390.225 309.402 392.225 304.302 393.025 301.802C393.725 299.302 395.325 295.502 396.425 293.302C397.525 291.202 398.425 288.802 398.425 288.102C398.425 287.402 399.825 283.902 401.425 280.502C403.125 277.002 404.425 273.702 404.425 273.302C404.425 272.902 405.525 270.201 406.825 267.401C411.925 256.401 421.025 232.702 423.525 223.802C425.925 214.902 425.925 209.302 423.325 205.702C420.025 201.102 416.025 201.702 409.625 207.802C406.825 210.502 403.525 214.602 402.425 216.802C401.325 219.002 400.025 220.802 399.625 220.802C399.225 220.802 396.925 224.902 394.425 229.802C388.925 240.902 387.025 241.902 389.525 232.302C390.125 230.102 390.725 226.002 390.925 223.302C391.225 220.502 391.625 216.202 391.925 213.602C392.525 208.602 390.225 196.502 388.225 194.102C385.425 190.702 383.625 190.701 380.025 193.901C376.825 196.701 369.425 208.802 369.425 211.302C369.425 211.802 368.325 214.502 367.025 217.102C364.925 221.502 364.625 221.802 364.125 219.602C363.725 218.402 363.425 216.102 363.425 214.702C363.425 213.202 362.025 208.102 360.325 203.202C356.725 193.102 353.525 189.102 349.225 189.602ZM303.525 698.802C303.925 698.802 304.325 700.502 304.225 702.502C304.225 704.602 304.525 708.602 304.925 711.502L305.725 716.701L302.325 717.201C296.725 718.101 290.425 718.801 280.325 719.701C275.025 720.201 268.325 721.102 265.325 721.602C262.325 722.202 257.425 723.001 254.425 723.401C249.225 724.001 238.925 727.302 223.025 733.302C219.225 734.702 216.025 735.702 215.825 735.602C215.725 735.402 216.125 733.602 216.725 731.602C217.725 728.402 218.425 727.802 222.325 726.802C224.825 726.202 227.925 724.901 229.325 723.901C230.725 722.901 233.525 721.502 235.425 720.802C237.325 720.102 239.625 718.902 240.525 718.102C241.325 717.402 242.625 716.802 243.225 716.802C243.825 716.802 247.625 715.302 251.625 713.502C255.625 711.602 260.525 709.502 262.425 708.802C264.325 708.102 266.325 707.102 266.925 706.602C267.425 706.202 268.625 705.802 269.625 705.802C270.525 705.802 272.825 705.201 274.625 704.401C276.425 703.601 280.725 701.802 284.225 700.302C287.625 698.902 292.825 697.502 295.625 697.302C298.325 697.102 300.925 696.602 301.325 696.302C301.625 695.902 302.025 696.301 302.225 697.201C302.425 698.101 303.025 698.802 303.525 698.802ZM56.4249 712.002C66.9249 713.402 67.1249 713.402 74.4249 715.302C78.0249 716.202 82.0249 717.201 83.4249 717.401C87.0249 718.201 102.325 722.801 106.425 724.401C108.325 725.101 111.725 726.201 113.925 726.701C116.125 727.201 120.325 728.502 123.125 729.602C126.025 730.702 130.125 731.902 132.325 732.302C136.125 732.902 136.225 733.001 136.225 737.401C136.325 741.501 135.325 743.102 133.925 740.802C133.625 740.202 132.125 739.802 130.625 739.802C129.125 739.802 123.725 738.702 118.625 737.302C107.125 734.302 83.0249 732.302 68.9249 733.302C63.4249 733.602 55.8249 734.102 51.9249 734.302C48.1249 734.502 42.5249 735.302 39.7249 736.102L34.4249 737.502L34.5249 723.602V709.802L41.7249 710.401C45.7249 710.701 52.3249 711.402 56.4249 712.002ZM199.825 719.201C206.525 723.801 208.825 727.502 207.525 731.102C206.025 735.102 200.125 742.401 196.925 744.401C186.725 750.801 166.025 752.202 154.925 747.302C152.125 746.102 148.625 743.602 147.125 741.802C144.825 739.102 144.525 738.001 145.025 734.901C146.125 728.901 152.725 722.002 161.925 717.302C164.925 715.802 172.225 715.101 182.525 715.201L194.225 715.302L199.825 719.201ZM308.725 731.102C309.025 732.902 309.925 738.302 310.725 743.302C313.225 757.902 314.525 767.402 314.925 773.502C315.225 776.702 315.625 780.902 315.825 782.802C316.125 784.702 316.825 791.702 317.425 798.302C318.025 804.902 318.925 813.902 319.625 818.302C322.025 835.202 320.925 876.202 317.525 895.802C317.025 898.802 315.625 907.402 314.425 914.802C311.325 934.502 310.725 937.802 309.425 942.802C308.825 945.302 307.325 951.602 306.325 956.802C305.225 962.002 303.125 970.902 301.825 976.602C300.425 982.202 299.125 987.802 298.925 988.902C298.725 990.102 298.025 991.502 297.525 992.202C297.025 992.802 296.125 998.002 295.525 1003.8C294.325 1015.6 294.025 1018 292.325 1025.8C291.225 1031.2 290.525 1034.6 288.425 1046.3C287.825 1049.6 286.425 1055.7 285.425 1059.8C284.325 1063.9 282.625 1070.9 281.525 1075.3C278.025 1089.4 275.925 1096.5 274.825 1097.9C274.225 1098.7 272.725 1103.6 271.425 1108.8C270.125 1114 268.825 1118.7 268.425 1119.3C268.025 1119.8 266.925 1123 265.925 1126.3C265.025 1129.6 263.625 1133.2 262.925 1134.3C262.325 1135.4 260.925 1139.1 259.925 1142.5L258.125 1148.7L253.025 1149.3C248.025 1149.8 238.925 1150.3 208.425 1151.5C189.125 1152.2 188.425 1152.2 187.525 1151.1C187.125 1150.7 187.125 1142.2 187.525 1132.3C187.825 1122.4 187.925 1108 187.725 1100.3C187.425 1092.6 187.325 1085.8 187.325 1085.3C188.125 1074.5 188.325 1064.6 188.825 1029C189.225 1002.2 189.025 984.102 188.425 979.502C187.425 973.002 186.825 941.502 185.925 860.802C185.525 823.602 184.725 808.902 182.925 806.102C180.825 802.902 177.825 803.202 175.925 806.802C174.625 809.302 174.525 816.001 174.925 858.001C175.225 884.601 175.525 906.702 175.525 907.302C175.625 907.802 175.525 909.602 175.425 911.302C174.925 919.302 175.825 968.302 176.625 975.802C177.625 985.002 177.825 1141.6 176.825 1148.4L176.225 1152.5L162.625 1153.2C155.025 1153.6 145.525 1154.1 141.425 1154.4C137.325 1154.6 129.825 1155 124.725 1155.1L115.525 1155.4L113.325 1149.9C112.125 1146.8 110.725 1143.9 110.225 1143.3C109.825 1142.8 109.425 1141.6 109.425 1140.6C109.425 1139.6 108.225 1136.5 106.825 1133.8C104.025 1128.4 102.725 1124.2 101.425 1116.3C99.8249 1106 98.4249 1101.3 94.7249 1093.1C93.4249 1090.3 92.4249 1087.1 92.4249 1086.1C92.4249 1085.1 90.8249 1079.8 88.9249 1074.4C87.0249 1068.9 85.4249 1062.9 85.4249 1060.9C85.4249 1058.9 84.9249 1055.5 84.3249 1053.3C83.7249 1051.1 82.8249 1047.3 82.4249 1044.8C81.9249 1042.3 80.2249 1034.9 78.5249 1028.3C76.9249 1021.7 74.8249 1012.7 73.9249 1008.3C73.0249 1003.9 71.1249 996.502 69.7249 991.802C68.2249 987.102 67.1249 982.402 67.2249 981.302C67.3249 980.202 66.6249 977.802 65.7249 975.902C64.9249 974.002 63.5249 969.302 62.7249 965.402C61.9249 961.502 60.7249 956.902 60.0249 955.302C59.2249 953.602 58.3249 949.802 57.9249 946.802C57.5249 943.802 56.8249 940.602 56.3249 939.702C55.9249 938.802 55.4249 935.902 55.3249 933.202C55.2249 930.502 54.8249 926.702 54.4249 924.802C53.9249 922.902 52.6249 915.702 51.4249 908.802C50.2249 901.902 48.6249 892.702 47.9249 888.302C47.1249 883.902 46.3249 878.502 46.0249 876.302C45.7249 874.102 45.0249 868.702 44.4249 864.302C43.8249 859.902 43.2249 854.902 43.0249 853.302C42.8249 851.602 42.1249 846.801 41.5249 842.501C40.9249 838.101 40.7249 834.202 41.0249 833.702C41.3249 833.202 41.1249 831.301 40.5249 829.501C39.9249 827.801 39.0249 820.002 38.5249 812.302C37.9249 804.602 37.3249 795.402 37.0249 791.802C36.8249 788.202 36.3249 778.102 35.9249 769.302C35.6249 760.502 35.1249 751.902 34.8249 750.102C34.5249 748.102 34.9249 746.501 35.9249 745.401C37.6249 743.801 38.3249 743.702 74.9249 743.502C93.2249 743.402 108.825 745.402 127.125 750.302C134.325 752.202 137.425 752.602 139.825 752.002C142.325 751.302 143.525 751.401 145.225 752.901C150.025 756.801 173.625 761.302 180.925 759.802C193.925 757.002 202.325 753.102 207.825 747.102C210.925 743.702 211.525 743.402 216.525 743.602C219.725 743.802 223.025 743.301 224.625 742.401C226.125 741.601 231.525 740.002 236.625 738.802C241.725 737.602 248.225 736.102 250.925 735.302C258.925 733.102 265.325 732.101 273.525 731.901C280.825 731.701 287.625 730.802 295.925 729.002C298.125 728.502 301.825 728.102 304.025 728.002C308.025 727.902 308.225 728.002 308.725 731.102ZM254.025 1162.6C253.725 1163.5 253.225 1165.6 252.825 1167.3C252.425 1168.9 251.325 1171.9 250.425 1173.8C249.425 1175.7 248.425 1179.1 248.025 1181.3C247.625 1183.5 246.025 1189.6 244.525 1194.8C242.925 1200 240.025 1210.1 237.925 1217.3C235.825 1224.4 233.525 1231.2 232.825 1232.3C232.025 1233.4 231.425 1234.9 231.425 1235.6C231.425 1236.4 230.825 1238.4 230.025 1240.1C229.225 1241.9 228.425 1244.2 228.125 1245.3C227.825 1246.4 226.425 1250.4 225.025 1254.1C223.625 1257.8 222.425 1262 222.425 1263.3C222.425 1267.3 218.025 1268.8 205.225 1269.3C197.525 1269.5 192.925 1269.3 190.925 1268.4L187.925 1267.2L187.625 1239.7C187.325 1206.5 187.325 1209.5 187.825 1197.3C188.025 1191.8 187.825 1186.5 187.525 1185.4C187.125 1184.4 187.125 1181 187.525 1178C188.025 1174.6 187.925 1171.9 187.325 1171.2C186.525 1170.2 187.525 1166.2 189.125 1163.9C189.225 1163.7 194.025 1163.4 199.625 1163.2C223.025 1162.5 234.625 1161.9 235.025 1161.5C235.225 1161.3 239.725 1161.1 245.025 1161C253.625 1160.8 254.525 1161 254.025 1162.6ZM177.125 1209.3C177.225 1234 177.325 1256.3 177.425 1258.8C177.725 1265.9 177.625 1266.3 174.425 1268.1C170.625 1270.4 156.525 1271.4 150.425 1269.9C147.925 1269.2 145.325 1268.6 144.625 1268.5C142.625 1268 141.425 1266.4 141.025 1263.3C140.825 1261.6 139.925 1257.3 139.025 1253.7C138.125 1250.1 136.925 1244 136.425 1240.2C134.925 1228.2 131.525 1211.1 127.825 1197.5C123.725 1182.1 122.725 1177.2 121.825 1170.1L121.125 1164.9L134.025 1164.6C141.125 1164.4 153.725 1164.3 161.925 1164.3H176.925L177.125 1209.3ZM140.525 1277.5C144.225 1279.9 145.725 1280.2 155.725 1280.6C163.525 1280.9 168.625 1280.6 172.425 1279.6L177.925 1278.1L178.125 1297.4L178.425 1316.6L162.125 1317.3C153.225 1317.7 129.325 1317.7 108.925 1317.2C88.6249 1316.8 64.4249 1316.5 55.2249 1316.6C43.6249 1316.7 38.3249 1316.4 37.8249 1315.6C36.5249 1313.5 36.5249 1307.3 37.9249 1305.2C38.7249 1304 41.3249 1301.9 43.7249 1300.4C48.7249 1297.6 52.4249 1297.1 75.9249 1296.2C91.2249 1295.7 93.5249 1295.5 97.9249 1294.4C113.225 1290.4 123.525 1285.5 129.825 1279.1C132.025 1276.8 134.525 1274.9 135.225 1274.9C135.925 1274.8 138.325 1276 140.525 1277.5ZM234.925 1281C241.225 1286.8 245.225 1288.9 256.925 1292.7C266.825 1296 266.925 1296 282.425 1295.5C312.625 1294.4 316.625 1294.9 321.025 1300.1C323.225 1302.8 323.525 1303.8 322.925 1307.7C322.025 1314.5 321.425 1315.8 319.625 1315.8C318.725 1315.8 316.725 1316.4 315.325 1317.2C313.625 1318.1 311.125 1318.3 307.625 1317.8C304.825 1317.5 292.025 1317.4 279.225 1317.7C251.725 1318.4 221.825 1318.3 204.425 1317.5C197.525 1317.2 190.925 1316.9 189.725 1316.8C187.525 1316.8 187.525 1316.7 187.925 1297C188.125 1286.2 188.325 1277.2 188.325 1277.1C188.425 1277 190.925 1277.8 194.125 1278.9C199.825 1280.8 211.825 1281.5 212.825 1279.9C213.125 1279.5 215.625 1278.8 218.325 1278.4C221.125 1278 223.625 1277.3 224.025 1276.7C225.225 1274.7 230.125 1276.7 234.925 1281Z" fill="#033732"/>
<path d="M303.226 220.601C299.226 225.001 294.926 232.001 293.726 236.301C290.926 246.001 290.426 248.801 290.426 253.901C290.526 260.801 293.326 269.201 295.726 269.601C298.426 270.101 299.226 266.301 297.726 260.501C296.226 254.401 296.026 250.401 297.426 248.001C297.926 247.101 299.026 243.601 299.826 240.301C300.626 237.001 302.826 231.601 304.826 228.401C308.726 221.801 309.026 220.601 307.126 218.901C306.126 218.101 305.126 218.501 303.226 220.601Z" fill="#033732"/>
<path d="M277.626 233.501C277.226 234.501 276.926 240.701 276.926 247.301C277.026 257.701 277.326 259.801 279.226 263.301C282.926 270.101 284.126 271.301 285.926 269.801C287.926 268.101 287.826 266.001 285.426 260.501C283.826 257.001 283.426 253.701 283.326 245.701C283.226 233.301 282.926 231.801 280.326 231.801C279.226 231.801 278.026 232.601 277.626 233.501Z" fill="#033732"/>
<path d="M438.525 242.602C438.025 243.602 437.525 247.402 437.525 251.102C437.525 254.902 436.925 259.002 436.125 260.502C434.925 262.802 432.025 270.802 431.125 274.102C431.025 274.602 431.725 275.502 432.725 276.102C434.225 277.102 434.825 276.902 436.425 274.802C437.525 273.402 439.125 270.002 440.025 267.302C440.925 264.502 442.125 261.802 442.625 261.102C443.925 259.402 444.825 248.802 444.025 244.402C443.225 240.402 440.225 239.402 438.525 242.602Z" fill="#033732"/>
<path d="M426.625 245.001C425.925 245.701 425.425 247.501 425.425 249.001C425.425 254.601 420.325 272.301 417.025 278.401C414.025 283.801 413.725 284.801 414.925 286.501C415.625 287.501 416.425 288.101 416.625 287.801C416.825 287.501 418.825 285.001 421.125 282.301C425.825 276.601 429.025 268.001 430.625 256.801C432.225 246.201 430.525 241.101 426.625 245.001Z" fill="#033732"/>
<path d="M210.825 264.501C209.025 268.701 206.825 274.801 202.325 288.301C200.625 293.201 198.825 297.701 198.325 298.201C197.825 298.801 197.425 300.001 197.425 301.001C197.425 302.101 195.925 307.501 194.025 313.101C192.225 318.701 190.125 325.301 189.425 327.801C188.625 330.301 187.725 332.701 187.425 333.301C187.025 333.801 185.925 336.501 184.925 339.301C178.925 355.901 169.925 368.801 164.225 368.801C160.125 368.801 155.325 366.501 152.325 363.201C149.125 359.601 145.424 353.201 145.424 351.201C145.424 350.401 144.524 347.901 143.424 345.801C141.324 341.701 137.324 329.501 135.524 321.801C133.224 311.701 131.624 306.001 130.424 303.801C128.924 301.001 128.324 299.001 123.824 281.801C121.824 274.401 119.924 267.901 119.424 267.401C118.824 266.901 117.924 267.001 116.924 267.801C113.724 270.401 115.624 282.501 123.524 310.801C124.124 312.701 125.624 319.001 126.924 324.801C128.324 330.601 130.024 337.101 130.824 339.301C131.624 341.501 132.324 343.801 132.424 344.501C132.424 345.701 135.124 352.101 139.724 361.801C140.924 364.201 143.924 368.301 146.524 370.701C157.125 380.701 170.525 380.001 179.225 369.101C181.525 366.201 184.225 362.101 185.225 360.001C186.125 358.001 187.225 356.201 187.625 356.001C188.025 355.801 189.025 353.501 189.925 350.701C190.825 348.001 192.025 345.601 192.525 345.301C193.025 344.901 193.425 343.701 193.425 342.401C193.425 341.201 193.825 339.801 194.325 339.201C194.825 338.701 195.925 335.101 196.925 331.301C197.825 327.401 199.025 323.801 199.425 323.301C199.925 322.701 201.125 318.801 202.225 314.601C203.425 310.401 204.925 305.701 205.725 304.101C206.525 302.601 207.525 299.501 207.925 297.301C208.325 295.101 208.925 292.801 209.325 292.301C209.725 291.701 211.325 287.201 212.925 282.301C214.425 277.301 216.125 272.801 216.625 272.101C217.125 271.501 217.425 268.801 217.225 266.101C216.925 262.001 216.625 261.301 214.725 261.001C213.025 260.701 212.125 261.501 210.825 264.501Z" fill="#033732"/>
<path d="M225.125 269.302C224.225 270.102 223.025 272.502 222.425 274.502C221.725 276.602 220.825 278.802 220.325 279.302C219.925 279.902 219.025 283.402 218.425 287.202C217.825 290.902 216.725 296.302 216.025 299.102C213.025 310.702 215.325 338.302 221.125 358.802C225.725 375.302 227.725 381.402 229.525 383.602C230.525 385.002 231.425 386.802 231.425 387.802C231.425 388.702 232.725 392.102 234.425 395.402C236.025 398.702 238.725 406.902 240.425 413.802C242.225 420.602 243.825 426.702 244.225 427.302C244.625 427.802 244.925 429.602 245.025 431.302C245.125 432.902 245.725 436.102 246.325 438.302C248.425 445.602 248.825 472.102 247.025 483.602C245.425 494.302 245.725 496.902 249.025 498.202C251.925 499.302 253.825 497.102 255.125 491.102C258.925 474.302 258.725 457.402 254.525 434.502C253.925 431.402 253.025 426.402 252.525 423.502C252.025 420.702 250.725 415.702 249.525 412.602C248.425 409.402 247.425 405.902 247.425 404.802C247.425 403.602 246.325 400.302 245.025 397.502C243.725 394.602 241.025 388.002 239.025 382.802C236.925 377.602 234.625 371.802 233.825 370.002C232.225 366.202 230.425 359.602 229.925 355.502C229.725 354.002 228.925 351.302 228.125 349.502C227.225 347.702 225.825 339.802 224.925 331.902C222.625 312.202 223.725 293.602 227.925 281.802C230.825 273.602 229.025 265.402 225.125 269.302Z" fill="#033732"/>
<path d="M101.127 275.101C100.127 276.601 99.9269 278.001 100.527 278.901C101.427 280.401 103.427 289.101 104.027 294.201C104.127 295.901 104.727 299.801 105.327 302.801C107.227 313.401 105.827 330.101 102.427 338.301C101.927 339.401 100.927 341.901 100.027 343.801C99.2269 345.701 98.3269 348.401 97.9269 349.801C97.2269 352.601 91.9269 365.001 89.7269 368.801C88.2269 371.601 86.7269 374.801 82.1269 385.301C80.5269 389.101 78.1269 394.601 76.8269 397.301C75.5269 400.101 74.4269 403.101 74.4269 404.101C74.4269 405.001 73.5269 408.101 72.4269 411.001C71.2269 413.901 69.9269 418.501 69.4269 421.301C68.9269 424.001 67.8269 429.401 66.9269 433.301C65.4269 440.301 63.2269 465.001 63.9269 467.101C64.1269 467.801 64.5269 472.401 64.8269 477.401C65.5269 490.201 68.0269 500.701 71.1269 503.601C76.1269 508.201 77.5269 502.901 75.3269 488.301C73.5269 476.701 73.4269 454.401 75.1269 441.301C75.9269 434.701 77.0269 428.901 77.5269 428.301C78.0269 427.801 78.4269 426.301 78.4269 424.801C78.4269 421.001 85.7269 398.801 89.9269 390.001C91.3269 387.101 92.4269 384.101 92.4269 383.301C92.4269 382.501 92.8269 381.801 93.2269 381.801C93.7269 381.801 94.8269 379.201 95.8269 376.001C96.8269 372.901 98.4269 369.201 99.4269 367.801C100.427 366.401 101.727 363.301 102.427 360.901C103.027 358.501 104.027 355.801 104.527 354.901C106.527 351.501 112.327 335.001 113.527 329.301C114.227 326.001 114.827 317.901 114.727 311.301C114.727 301.001 114.327 297.601 111.527 287.301C107.727 273.101 104.727 269.601 101.127 275.101Z" fill="#033732"/>
<path d="M95.7254 302.502C94.0254 304.602 91.3254 309.002 89.5254 312.302C85.3254 319.902 77.8254 333.502 74.0254 340.202C62.4254 360.802 51.7254 383.502 46.4254 398.402C44.7254 403.202 42.7254 408.502 42.0254 410.202C41.2254 411.902 40.0254 415.502 39.4254 418.302C38.7254 421.002 37.8254 423.702 37.4254 424.302C37.0254 424.802 36.2254 427.302 35.6254 429.802C34.6254 434.102 30.7254 447.702 29.6254 450.802C28.6254 453.802 25.2254 465.402 23.8254 471.302C20.9254 483.002 20.2254 485.302 18.8254 488.602C18.0254 490.402 17.4254 492.802 17.4254 493.902C17.4254 495.102 16.3254 500.102 15.0254 505.102C13.7254 510.202 12.1254 517.002 11.5254 520.302C10.8254 523.602 9.92543 527.602 9.42543 529.302C8.22543 533.102 5.62543 548.402 4.42543 558.002C3.92543 562.002 2.92543 570.702 2.12543 577.302C0.0254253 594.102 -0.0745746 595.602 0.0254254 620.802C0.125425 636.702 0.625425 646.802 1.82543 655.202C2.82543 661.802 3.72543 668.502 3.92543 670.202C5.52543 686.202 6.72543 694.302 8.42543 701.202C9.52543 705.602 11.1254 713.802 12.0254 719.302C14.6254 735.102 16.0254 738.802 19.4254 738.802C22.8254 738.802 22.7254 734.102 18.9254 713.302C18.1254 708.902 17.0254 701.902 16.5254 697.802C16.0254 693.702 15.3254 689.202 15.0254 687.802C14.7254 686.402 14.2254 682.602 13.9254 679.302C13.6254 676.002 12.9254 670.802 12.4254 667.802C7.62543 638.702 8.02543 586.002 13.4254 553.802C13.9254 550.802 15.0254 544.202 15.8254 539.302C16.7254 534.302 18.1254 527.602 18.9254 524.302C19.8254 521.002 21.0254 516.502 21.4254 514.302C21.9254 512.102 22.8254 508.102 23.3254 505.502C23.9254 502.802 24.7254 500.202 25.0254 499.602C25.4254 499.002 26.1254 496.802 26.5254 494.902C28.1254 487.202 32.6254 469.902 35.1254 461.802C36.6254 457.102 38.8254 449.502 40.1254 444.802C41.3254 440.102 42.6254 435.802 42.7254 435.302C42.9254 434.702 43.3254 433.602 43.6254 432.802C45.3254 428.302 47.4254 420.302 47.4254 418.902C47.4254 417.902 47.7254 416.802 48.1254 416.402C48.9254 415.602 51.4254 408.702 51.4254 407.102C51.4254 406.402 52.5254 403.502 53.8254 400.602C55.1254 397.702 56.5254 393.602 56.9254 391.602C57.3254 389.502 58.2254 387.402 59.0254 386.702C59.8254 386.102 60.4254 385.102 60.4254 384.502C60.4254 383.402 68.4254 366.402 74.0254 355.802C75.8254 352.202 79.9254 344.102 83.1254 337.802C86.2254 331.502 89.0254 326.102 89.3254 325.802C90.3254 324.902 102.425 301.002 102.425 299.902C102.425 297.402 98.4254 299.102 95.7254 302.502Z" fill="#033732"/>
</svg>
