<svg width="1545" height="269" viewBox="0 0 1545 269" fill="none" xmlns="http://www.w3.org/2000/svg">
<path d="M0 119.298H35.3817V222.524H52.4776V119.273L87.6893 119.298V103.569H0V119.298Z" fill="#033732"/>
<path d="M227.778 155.451H166.121V103.569H149.025V103.985V222.524H166.121V170.666H227.778V222.524H244.874V103.569H227.778V155.451Z" fill="#033732"/>
<path d="M328.901 170.495H375.744V154.62H328.901V119.298H385.385V103.569H311.805V103.985V222.524H387.036V206.649H328.901V170.495Z" fill="#033732"/>
<path d="M1087.27 187.544L1087 187.91C1083.05 193.659 1078.12 198.404 1072.17 202.098C1066.27 205.792 1059.08 207.651 1050.63 207.651C1044.48 207.651 1038.78 206.525 1033.51 204.251C1028.24 201.976 1023.65 198.869 1019.76 194.882C1015.88 190.895 1012.82 186.174 1010.63 180.719C1008.45 175.24 1007.33 169.369 1007.33 163.058C1007.33 156.747 1008.4 150.876 1010.53 145.47C1012.67 140.04 1015.66 135.319 1019.5 131.283C1023.33 127.247 1027.82 124.116 1033 121.841C1038.15 119.59 1043.73 118.441 1049.78 118.441C1053.95 118.441 1057.82 118.93 1061.38 119.933C1064.95 120.936 1068.21 122.281 1071.17 123.993C1074.13 125.706 1076.83 127.687 1079.23 129.962C1081.64 132.237 1083.8 134.683 1085.67 137.349L1085.94 137.716L1098.66 126.122L1098.47 125.828C1096.23 122.575 1093.54 119.468 1090.36 116.557C1087.17 113.622 1083.53 111.078 1079.48 108.876C1075.4 106.675 1070.93 104.914 1066.02 103.568C1061.12 102.223 1055.7 101.538 1049.8 101.538C1041.45 101.538 1033.63 103.104 1026.39 106.259C1019.16 109.415 1012.79 113.695 1007.33 119.15C1001.86 124.605 997.567 131.087 994.458 138.621C991.326 146.155 989.771 154.301 989.771 163.033C989.771 171.791 991.35 179.936 994.531 187.47C997.712 194.98 1002.06 201.486 1007.57 206.941C1013.08 212.396 1019.54 216.677 1026.88 219.832C1034.24 222.988 1042.15 224.553 1050.63 224.553C1056.09 224.553 1061.21 223.917 1066.02 222.621C1070.81 221.324 1075.28 219.514 1079.4 217.142C1083.53 214.793 1087.3 212.029 1090.7 208.898C1094.1 205.767 1097.08 202.318 1099.63 198.624L1099.85 198.306L1099.56 198.062L1087.27 187.544Z" fill="#033732"/>
<path d="M1180.47 103.569H1163.37V103.985V222.524H1232.31V206.82H1180.47V103.569Z" fill="#033732"/>
<path d="M1378.96 178.445C1378.96 182.408 1378.25 186.199 1376.82 189.844C1375.39 193.489 1373.44 196.62 1370.92 199.237C1368.42 201.879 1365.38 203.982 1361.84 205.597C1358.29 207.187 1354.45 207.994 1350.3 207.994C1346.03 207.994 1342.17 207.187 1338.67 205.597C1335.17 204.007 1332.14 201.879 1329.56 199.237C1326.99 196.595 1325.05 193.464 1323.66 189.844C1322.3 186.199 1321.62 182.408 1321.62 178.445V103.569H1304.53V179.448C1304.53 185.637 1305.67 191.483 1307.98 197.011C1310.26 202.515 1313.46 207.309 1317.54 211.37C1321.62 215.43 1326.46 218.635 1332.04 220.983C1337.63 223.356 1343.72 224.53 1350.3 224.53C1356.88 224.53 1362.98 223.356 1368.56 220.983C1374.15 218.61 1378.98 215.406 1383.06 211.37C1387.14 207.309 1390.32 202.515 1392.63 197.011C1394.91 191.507 1396.08 185.637 1396.08 179.448V103.569H1378.98V178.445H1378.96Z" fill="#033732"/>
<path d="M1542.41 178.885C1541.25 175.779 1539.72 173.063 1537.87 170.74C1536.03 168.416 1533.94 166.483 1531.63 164.967C1529.64 163.646 1527.63 162.667 1525.59 161.983C1527.31 161.126 1528.96 160.001 1530.59 158.607C1532.51 156.968 1534.21 154.987 1535.74 152.663C1537.27 150.339 1538.46 147.722 1539.35 144.786C1540.25 141.851 1540.69 138.671 1540.69 135.295C1540.69 130.452 1539.79 126.074 1537.99 122.16C1536.2 118.27 1533.7 114.919 1530.49 112.155C1527.29 109.391 1523.42 107.263 1518.88 105.795C1514.34 104.328 1509.29 103.594 1503.73 103.594H1462.62V104.01V222.573H1505.55C1511.23 222.573 1516.45 221.815 1521.21 220.298C1525.97 218.781 1530.05 216.58 1533.48 213.693C1536.9 210.807 1539.55 207.334 1541.39 203.249C1543.24 199.164 1544.16 194.589 1544.16 189.526C1544.19 185.539 1543.6 182.016 1542.41 178.885ZM1505.89 206.649H1479.71V169.981H1503.9C1507.18 169.981 1510.21 170.446 1512.98 171.376C1515.77 172.305 1518.13 173.602 1520.07 175.24C1522.02 176.879 1523.55 178.787 1524.61 180.964C1525.68 183.141 1526.24 185.465 1526.24 187.985C1526.24 190.602 1525.76 193.073 1524.78 195.348C1523.81 197.622 1522.43 199.604 1520.66 201.218C1518.86 202.857 1516.72 204.178 1514.22 205.157C1511.72 206.159 1508.95 206.649 1505.89 206.649ZM1521.8 143.857C1521.04 146.156 1519.88 148.138 1518.32 149.825C1516.77 151.513 1514.78 152.834 1512.33 153.813C1509.9 154.791 1507.08 155.28 1503.92 155.28H1479.74V119.273H1503.41C1509.66 119.273 1514.44 121.01 1517.84 124.435C1521.26 127.884 1522.94 131.92 1522.96 136.616C1522.94 139.136 1522.55 141.557 1521.8 143.857Z" fill="#033732"/>
<path d="M572.671 73.2607L572.282 73.3586L571.092 73.6277L555.818 76.9544L574.006 161.786C574.492 164.109 574.735 166.189 574.735 168.097C574.71 173.649 572.865 177.441 570.048 180.254C567.207 183.042 563.273 184.779 559.144 185.684C557.663 186.002 555.988 186.222 554.263 186.222C550.961 186.222 547.512 185.44 544.525 183.091C541.539 180.743 538.916 176.805 537.459 170.078L536.318 164.794L519.756 168.39L520.897 173.674C522.791 182.455 526.507 189.769 531.995 194.882C537.483 199.994 544.72 202.856 553.292 202.856H553.316C556.303 202.856 559.436 202.513 562.738 201.829C571.966 199.823 579.3 195.542 584.303 189.574C589.305 183.629 591.976 176.071 591.976 167.73C591.976 164.77 591.636 161.712 590.981 158.581L572.671 73.2607Z" fill="#033732"/>
<path d="M700.563 0V0.41584V0C666.007 0 638.008 28.2037 638.008 63.0119C638.008 97.8202 666.007 126.024 700.563 126.024C735.119 126.024 763.119 97.8202 763.119 63.0119C763.119 28.2037 735.119 0 700.563 0ZM668.363 95.4474C660.13 87.1306 655.031 75.6828 655.031 63.0119C655.031 50.3411 660.13 38.8932 668.363 30.5764C676.619 22.2841 687.984 17.1473 700.563 17.1473C713.142 17.1473 724.507 22.2841 732.764 30.5764C740.996 38.8932 746.095 50.3411 746.095 63.0119C746.095 75.6828 740.996 87.1306 732.764 95.4474C724.507 103.74 713.142 108.877 700.563 108.877C687.984 108.901 676.619 103.764 668.363 95.4474Z" fill="#033732"/>
<path d="M864.346 185.464L801.062 214.402L807.424 144.443L806.647 143.88L791.324 132.922L783.092 224.578L759.002 258.726L773.062 268.804L797.152 234.656L880.252 196.594L864.564 185.367L864.346 185.464Z" fill="#033732"/>
</svg>
